# xmcd
#
# Track frame offsets:
#	150
#	17914
#	32534
#	50957
#	71278
#	88390
#	112386
#	134600
#	151866
#	168653
#	185701
#	205974
#	224363
#	246192
#
# Disc length: 3487 seconds
#
# Revision: 0
# Processed by: cddbd v1.5.1PL0 Copyright (c) Steve Scherf et al.
# Submitted via: EasyCDDAExtractor 8.0.1.1
#
DISCID=db0d9d0e
DTITLE=Various Artist - Beach Music Party 
DYEAR=2005
DGENRE=Blues
TTITLE0=Lee Shot Williams - Juke Joint Slide
TTITLE1=Rick Lawson - Back That Thang Up
TTITLE2=Dr. Feelgood Potts - Make It Talk
TTITLE3=Rick Lawson - It's Party Time
TTITLE4=Rick Lawson - Beach Music Party
TTITLE5=O.B.Buchana - Booty Scoot
TTITLE6=Bill Coday - I'm In A Midnight Mood in The Middle Of The Day
TTITLE7=Rick Lawson - I Wanna Have Some Fun
TTITLE8=Dr. Feelgood Potts - Aphrodisiac
TTITLE9=Quinn Golden - It's Saturday
TTITLE10=Bill Coday - Back It Up And Put It Here
TTITLE11=Denise LaSalle - You shoulda Kept It In The Bedroom
TTITLE12=O.B. Buchana - That's My Bad
TTITLE13=Sheba Potts Wright - Get Behind Me
EXTD=Barcode 7 06393 10712 7\n
EXTT0=
EXTT1=
EXTT2=
EXTT3=
EXTT4=
EXTT5=
EXTT6=
EXTT7=
EXTT8=
EXTT9=
EXTT10=
EXTT11=
EXTT12=
EXTT13=
PLAYORDER=
